<svg xmlns="http://www.w3.org/2000/svg" viewBox="0 0 90 60"><path fill="#000" d="M0 0h90v18H0z"/><path fill="#fff" d="M0 18h90v4H0z"/><path fill="#bb0000" d="M0 22h90v16H0z"/><path fill="#fff" d="M0 38h90v4H0z"/><path fill="#006600" d="M0 42h90v18H0z"/><g transform="translate(45 30)"><path stroke="#fff" stroke-width="1.8" d="M-22-20L22 20M22-20L-22 20"/><path stroke="#000" stroke-width="1" d="M-22-20L22 20M22-20L-22 20"/><path fill="#bb0000" stroke="#fff" stroke-width="1.5" d="M0-16c8 7 8 25 0 32-8-7-8-25 0-32z"/><path fill="#000" d="M0-13c3 6 3 20 0 26-3-6-3-20 0-26z"/><ellipse fill="#fff" cx="0" cy="-6" rx="1.6" ry="3.2"/><ellipse fill="#fff" cx="0" cy="6" rx="1.6" ry="3.2"/></g></svg>